<?xml version="1.0" encoding="UTF-8" standalone="no"?>
<!DOCTYPE svg PUBLIC "-//W3C//DTD SVG 1.1//EN" "http://www.w3.org/Graphics/SVG/1.1/DTD/svg11.dtd">
<svg version="1.1" xmlns="http://www.w3.org/2000/svg" xmlns:xlink="http://www.w3.org/1999/xlink" preserveAspectRatio="xMidYMid meet" viewBox="0 0 640 640" width="640" height="640"><defs><path d="M525.13 10.72L525.13 412.77L21.01 412.77L21.01 10.72L525.13 10.72Z" id="a1AoDORv6D"></path><path d="M356.25 180.79L356.36 180.79L356.48 180.79L356.6 180.8L356.72 180.8L356.84 180.81L356.96 180.82L357.09 180.83L357.21 180.84L357.34 180.85L357.46 180.86L357.59 180.88L357.72 180.9L357.85 180.92L357.98 180.94L358.11 180.96L358.24 180.98L358.37 181.01L358.51 181.03L358.64 181.06L358.77 181.09L358.9 181.12L359.04 181.15L359.17 181.19L359.3 181.22L359.43 181.26L359.56 181.3L359.69 181.34L359.82 181.38L359.95 181.42L360.08 181.47L360.21 181.51L360.33 181.56L360.46 181.61L360.58 181.66L360.7 181.71L360.82 181.77L360.94 181.82L361.06 181.88L361.18 181.94L361.29 181.99L362.3 182.4L362.41 182.46L362.52 182.51L362.61 182.57L362.71 182.63L362.8 182.68L362.88 182.73L362.96 182.78L363.03 182.83L363.09 182.88L363.15 182.92L363.2 182.97L363.25 183.01L363.3 183.05L363.33 183.09L363.36 183.13L363.39 183.17L363.41 183.2L363.42 183.24L363.43 183.27L363.43 183.3L363.43 183.33L363.42 183.36L363.41 183.39L363.39 183.41L363.36 183.43L363.33 183.46L363.3 183.48L363.25 183.49L363.2 183.51L363.15 183.53L363.09 183.54L363.03 183.55L362.96 183.57L362.88 183.58L362.8 183.58L362.71 183.59L362.61 183.6L362.52 183.6L362.41 183.6L362.3 183.6L288.7 183.6L289.71 184.41L491.36 184.41L498.41 178.78L508.5 187.22L498.41 195.26L491.86 190.04L289.71 190.04L288.7 190.84L434.89 190.84L435.08 190.84L435.25 190.84L435.42 190.85L435.57 190.85L435.72 190.86L435.86 190.87L435.99 190.88L436.1 190.89L436.21 190.9L436.31 190.92L436.4 190.93L436.48 190.95L436.55 190.97L436.61 190.99L436.67 191.01L436.71 191.03L436.74 191.06L436.77 191.08L436.78 191.11L436.78 191.14L436.78 191.17L436.77 191.2L436.74 191.24L436.71 191.27L436.67 191.31L436.61 191.35L436.55 191.39L436.48 191.43L436.4 191.47L436.31 191.52L436.21 191.56L436.1 191.61L435.99 191.66L435.86 191.71L435.72 191.76L435.57 191.82L435.42 191.87L435.25 191.93L435.08 191.99L434.89 192.05L433.38 192.45L433.19 192.51L432.99 192.57L432.78 192.62L432.57 192.68L432.35 192.73L432.12 192.78L431.89 192.83L431.66 192.88L431.42 192.93L431.18 192.98L430.93 193.02L430.68 193.06L430.42 193.1L430.17 193.14L429.91 193.18L429.65 193.22L429.38 193.26L429.12 193.29L428.86 193.32L428.59 193.35L428.33 193.38L428.06 193.41L427.8 193.44L427.54 193.46L427.28 193.48L427.02 193.51L426.76 193.53L426.51 193.55L426.26 193.56L426.01 193.58L425.76 193.59L425.53 193.61L425.29 193.62L425.06 193.63L424.83 193.64L424.62 193.64L424.4 193.65L424.2 193.65L424 193.65L423.8 193.65L285.67 193.65L273.07 203.71L260.47 193.65L122.34 193.65L122.14 193.65L121.94 193.65L121.74 193.65L121.52 193.64L121.31 193.64L121.08 193.63L120.85 193.62L120.62 193.61L120.38 193.59L120.13 193.58L119.88 193.56L119.63 193.55L119.38 193.53L119.12 193.51L118.86 193.48L118.6 193.46L118.34 193.44L118.08 193.41L117.81 193.38L117.55 193.35L117.28 193.32L117.02 193.29L116.76 193.26L116.49 193.22L116.23 193.18L115.97 193.14L115.72 193.1L115.46 193.06L115.21 193.02L114.96 192.98L114.72 192.93L114.48 192.88L114.25 192.83L114.02 192.78L113.79 192.73L113.57 192.68L113.36 192.62L113.15 192.57L112.95 192.51L112.76 192.45L111.25 192.05L111.06 191.99L110.89 191.93L110.72 191.87L110.57 191.82L110.42 191.76L110.28 191.71L110.15 191.66L110.04 191.61L109.93 191.56L109.83 191.52L109.74 191.47L109.66 191.43L109.59 191.39L109.53 191.35L109.47 191.31L109.43 191.27L109.4 191.24L109.37 191.2L109.36 191.17L109.36 191.14L109.36 191.11L109.37 191.08L109.4 191.06L109.43 191.03L109.47 191.01L109.53 190.99L109.59 190.97L109.66 190.95L109.74 190.93L109.83 190.92L109.93 190.9L110.04 190.89L110.15 190.88L110.28 190.87L110.42 190.86L110.57 190.85L110.72 190.85L110.89 190.84L111.06 190.84L111.25 190.84L257.44 190.84L256.43 190.04L54.28 190.04L47.73 195.26L37.64 187.22L47.73 179.18L54.78 184.81L255.93 184.81L256.94 184.01L183.34 184.01L183.23 184L183.12 184L183.02 184L182.93 183.99L182.84 183.99L182.76 183.98L182.68 183.97L182.61 183.96L182.54 183.94L182.49 183.93L182.43 183.91L182.38 183.9L182.34 183.88L182.3 183.86L182.27 183.84L182.25 183.81L182.23 183.79L182.21 183.76L182.2 183.73L182.2 183.7L182.2 183.67L182.21 183.64L182.23 183.61L182.25 183.57L182.27 183.53L182.3 183.5L182.34 183.46L182.38 183.41L182.43 183.37L182.49 183.33L182.54 183.28L182.61 183.23L182.68 183.18L182.76 183.13L182.84 183.08L182.93 183.03L183.02 182.97L183.12 182.92L183.23 182.86L183.34 182.8L184.34 182.4L184.46 182.34L184.57 182.28L184.69 182.22L184.81 182.17L184.93 182.11L185.06 182.06L185.18 182.01L185.3 181.96L185.43 181.92L185.56 181.87L185.69 181.82L185.81 181.78L185.94 181.74L186.07 181.7L186.21 181.66L186.34 181.63L186.47 181.59L186.6 181.56L186.73 181.52L186.86 181.49L187 181.46L187.13 181.44L187.26 181.41L187.39 181.38L187.52 181.36L187.66 181.34L187.79 181.32L187.92 181.3L188.04 181.28L188.17 181.27L188.3 181.25L188.43 181.24L188.55 181.23L188.67 181.22L188.8 181.21L188.92 181.2L189.04 181.2L189.16 181.19L189.27 181.19L189.39 181.19L260.47 181.19L273.07 171.14L285.67 180.79L356.25 180.79ZM273.07 199.28L288.7 186.82L273.07 174.36L257.44 186.82L273.07 199.28ZM498.41 193.25L499.23 192.45L500.31 191.49L501.55 190.46L502.84 189.43L504.08 188.49L505.16 187.72L505.98 187.22L498.41 181.19L490.85 187.22L498.41 193.25ZM40.98 187.47L42.06 188.34L43.3 189.35L44.59 190.43L45.83 191.48L46.91 192.45L47.73 193.25L48.7 192.45L49.84 191.48L51.07 190.43L52.31 189.35L53.48 188.34L54.5 187.47L55.29 186.82L47.73 180.79L40.16 186.82L40.98 187.47Z" id="bjE5I5tQo"></path></defs><g><g><g><g><use xlink:href="#a1AoDORv6D" opacity="1" fill-opacity="0" stroke="#000000" stroke-width="1" stroke-opacity="0"></use></g></g><g><use xlink:href="#bjE5I5tQo" opacity="1" fill="#000000" fill-opacity="1"></use><g><use xlink:href="#bjE5I5tQo" opacity="1" fill-opacity="0" stroke="#000000" stroke-width="1" stroke-opacity="0"></use></g></g></g></g></svg>