<?xml version="1.0" encoding="UTF-8" standalone="no"?>
<!DOCTYPE svg PUBLIC "-//W3C//DTD SVG 1.1//EN" "http://www.w3.org/Graphics/SVG/1.1/DTD/svg11.dtd">
<svg version="1.1" xmlns="http://www.w3.org/2000/svg" xmlns:xlink="http://www.w3.org/1999/xlink" preserveAspectRatio="xMidYMid meet" viewBox="104.22956076465991 258.8531782387836 474.85154639175266 36.566047597209376" width="470.85" height="32.57"><defs><path d="M423.84 269.5L423.95 269.5L424.07 269.51L424.18 269.51L424.3 269.51L424.42 269.52L424.55 269.53L424.67 269.54L424.8 269.55L424.92 269.56L425.05 269.58L425.18 269.59L425.31 269.61L425.44 269.63L425.57 269.65L425.7 269.67L425.83 269.7L425.96 269.72L426.09 269.75L426.22 269.77L426.36 269.8L426.49 269.83L426.62 269.87L426.75 269.9L426.88 269.94L427.02 269.97L427.15 270.01L427.28 270.05L427.41 270.09L427.54 270.14L427.66 270.18L427.79 270.23L427.92 270.27L428.04 270.32L428.17 270.37L428.29 270.43L428.41 270.48L428.53 270.53L428.65 270.59L428.76 270.65L428.88 270.71L429.89 271.11L430 271.17L430.1 271.23L430.2 271.28L430.29 271.34L430.38 271.39L430.46 271.45L430.54 271.5L430.61 271.54L430.68 271.59L430.74 271.64L430.79 271.68L430.84 271.73L430.88 271.77L430.92 271.81L430.95 271.85L430.97 271.88L430.99 271.92L431.01 271.95L431.02 271.98L431.02 272.02L431.02 272.04L431.01 272.07L430.99 272.1L430.97 272.12L430.95 272.15L430.92 272.17L430.88 272.19L430.84 272.21L430.79 272.23L430.74 272.24L430.68 272.26L430.61 272.27L430.54 272.28L430.46 272.29L430.38 272.3L430.29 272.3L430.2 272.31L430.1 272.31L430 272.32L429.89 272.32L356.28 272.32L357.29 273.12L558.94 273.12L566 267.49L576.08 275.94L566 283.98L559.45 278.75L357.29 278.75L356.28 279.55L502.48 279.55L502.66 279.55L502.84 279.56L503 279.56L503.16 279.57L503.31 279.57L503.44 279.58L503.57 279.59L503.69 279.6L503.8 279.61L503.9 279.63L503.99 279.64L504.07 279.66L504.14 279.68L504.2 279.7L504.25 279.72L504.29 279.75L504.33 279.77L504.35 279.8L504.36 279.83L504.37 279.86L504.36 279.89L504.35 279.92L504.33 279.95L504.29 279.99L504.25 280.02L504.2 280.06L504.14 280.1L504.07 280.14L503.99 280.19L503.9 280.23L503.8 280.28L503.69 280.33L503.57 280.37L503.44 280.43L503.31 280.48L503.16 280.53L503 280.59L502.84 280.64L502.66 280.7L502.48 280.76L500.97 281.16L500.77 281.22L500.57 281.28L500.37 281.34L500.15 281.39L499.93 281.44L499.71 281.5L499.48 281.55L499.24 281.6L499 281.64L498.76 281.69L498.51 281.73L498.26 281.78L498.01 281.82L497.75 281.86L497.49 281.9L497.23 281.93L496.97 281.97L496.71 282L496.44 282.04L496.18 282.07L495.91 282.1L495.65 282.12L495.39 282.15L495.12 282.17L494.86 282.2L494.6 282.22L494.35 282.24L494.09 282.26L493.84 282.28L493.59 282.29L493.35 282.31L493.11 282.32L492.88 282.33L492.65 282.34L492.42 282.35L492.2 282.36L491.99 282.36L491.78 282.36L491.58 282.37L491.39 282.37L353.26 282.37L340.66 292.42L328.05 282.37L189.92 282.37L189.73 282.37L189.53 282.36L189.32 282.36L189.11 282.36L188.89 282.35L188.67 282.34L188.44 282.33L188.2 282.32L187.96 282.31L187.72 282.29L187.47 282.28L187.22 282.26L186.96 282.24L186.71 282.22L186.45 282.2L186.19 282.17L185.93 282.15L185.66 282.12L185.4 282.1L185.13 282.07L184.87 282.04L184.6 282L184.34 281.97L184.08 281.93L183.82 281.9L183.56 281.86L183.3 281.82L183.05 281.78L182.8 281.73L182.55 281.69L182.31 281.64L182.07 281.6L181.83 281.55L181.6 281.5L181.38 281.44L181.16 281.39L180.94 281.34L180.74 281.28L180.54 281.22L180.34 281.16L178.83 280.76L178.65 280.7L178.47 280.64L178.31 280.59L178.15 280.53L178 280.48L177.87 280.43L177.74 280.37L177.62 280.33L177.51 280.28L177.41 280.23L177.32 280.19L177.24 280.14L177.17 280.1L177.11 280.06L177.06 280.02L177.02 279.99L176.98 279.95L176.96 279.92L176.95 279.89L176.94 279.86L176.95 279.83L176.96 279.8L176.98 279.77L177.02 279.75L177.06 279.72L177.11 279.7L177.17 279.68L177.24 279.66L177.32 279.64L177.41 279.63L177.51 279.61L177.62 279.6L177.74 279.59L177.87 279.58L178 279.57L178.15 279.57L178.31 279.56L178.47 279.56L178.65 279.55L178.83 279.55L325.03 279.55L324.02 278.75L121.87 278.75L115.31 283.98L105.23 275.94L115.31 267.89L122.37 273.52L323.52 273.52L324.52 272.72L250.92 272.72L250.81 272.72L250.71 272.72L250.61 272.71L250.51 272.71L250.43 272.7L250.34 272.69L250.27 272.68L250.2 272.67L250.13 272.66L250.07 272.64L250.02 272.63L249.97 272.61L249.93 272.59L249.89 272.57L249.86 272.55L249.83 272.53L249.81 272.5L249.8 272.47L249.79 272.45L249.79 272.42L249.79 272.39L249.8 272.35L249.81 272.32L249.83 272.28L249.86 272.25L249.89 272.21L249.93 272.17L249.97 272.13L250.02 272.08L250.07 272.04L250.13 271.99L250.2 271.95L250.27 271.9L250.34 271.85L250.43 271.8L250.51 271.74L250.61 271.69L250.71 271.63L250.81 271.57L250.92 271.51L251.93 271.11L252.04 271.05L252.16 270.99L252.28 270.94L252.4 270.88L252.52 270.83L252.64 270.78L252.76 270.73L252.89 270.68L253.02 270.63L253.14 270.58L253.27 270.54L253.4 270.5L253.53 270.45L253.66 270.41L253.79 270.38L253.92 270.34L254.05 270.3L254.19 270.27L254.32 270.24L254.45 270.21L254.58 270.18L254.71 270.15L254.85 270.12L254.98 270.1L255.11 270.07L255.24 270.05L255.37 270.03L255.5 270.01L255.63 270L255.76 269.98L255.88 269.97L256.01 269.95L256.14 269.94L256.26 269.93L256.38 269.92L256.5 269.92L256.62 269.91L256.74 269.91L256.86 269.91L256.97 269.9L328.05 269.9L340.66 259.85L353.26 269.5L423.84 269.5ZM340.66 288L356.28 275.53L340.66 263.07L325.03 275.53L340.66 288ZM566 281.97L566.81 281.17L567.89 280.21L569.13 279.17L570.43 278.14L571.66 277.2L572.74 276.44L573.56 275.94L566 269.9L558.44 275.94L566 281.97ZM108.57 276.18L109.65 277.05L110.89 278.06L112.18 279.14L113.42 280.2L114.5 281.17L115.31 281.97L116.29 281.17L117.43 280.2L118.66 279.14L119.9 278.06L121.07 277.05L122.08 276.18L122.87 275.53L115.31 269.5L107.75 275.53L108.57 276.18Z" id="b13Twe2Gjy"></path></defs><g><g><use xlink:href="#b13Twe2Gjy" opacity="1" fill="#000000" fill-opacity="1"></use><g><use xlink:href="#b13Twe2Gjy" opacity="1" fill-opacity="0" stroke="#000000" stroke-width="1" stroke-opacity="0"></use></g></g></g></svg>