<!-- Generated by IcoMoon.io -->
<svg version="1.1" xmlns="http://www.w3.org/2000/svg" width="1024" height="1024" viewBox="0 0 1024 1024">
<title></title>
<g id="icomoon-ignore">
</g>
<path fill="#000" d="M570 289.264h0.368l0.192 0.016h0.192l0.384 0.032 0.208 0.016 0.192 0.016 0.208 0.016 0.192 0.016 1.248 0.192 0.208 0.048 0.224 0.032 0.624 0.144 0.224 0.048 0.208 0.064 0.208 0.048 1.040 0.32 0.208 0.080 0.208 0.064 0.192 0.080 0.208 0.080 0.384 0.16 0.192 0.096 0.192 0.080 0.384 0.192 0.176 0.080 1.616 0.656 0.176 0.096 0.176 0.080 0.144 0.096 0.16 0.096 0.144 0.080 0.256 0.16 0.112 0.080 0.096 0.080 0.096 0.064 0.080 0.080 0.16 0.128 0.144 0.192 0.032 0.048 0.016 0.064 0.016 0.048v0.096l-0.032 0.096-0.032 0.032-0.048 0.032-0.048 0.048-0.048 0.032-0.080 0.016-0.16 0.064-0.192 0.032-0.112 0.032-0.128 0.016h-0.128l-0.144 0.016-0.16 0.016h-118.256l1.616 1.296h322.64l11.28-9.008 16.144 13.504-16.144 12.864-10.48-8.352h-323.44l-1.616 1.28 236.928 0.432v0.096l-0.016 0.048-0.048 0.064-0.112 0.112-0.192 0.128-0.112 0.064-0.128 0.064-0.144 0.080-0.16 0.064-0.352 0.16-0.208 0.080-0.224 0.080-0.24 0.096-0.24 0.080-0.544 0.192-0.304 0.096-2.416 0.64-0.304 0.096-0.32 0.096-0.336 0.080-0.336 0.096-0.352 0.080-1.104 0.24-0.768 0.16-0.8 0.128-0.416 0.064-0.4 0.064-0.832 0.128-0.432 0.064-0.832 0.096-0.432 0.048-0.416 0.048-0.432 0.048-0.416 0.048-0.832 0.064-0.416 0.048-0.416 0.032-0.4 0.032-0.4 0.016-0.4 0.032-0.4 0.016-0.368 0.032-1.12 0.048h-0.336l-0.352 0.016h-221.968l-20.16 16.096-20.16-16.096-228.256-0.432-0.416-0.048-0.432-0.048-0.832-0.096-0.432-0.064-0.832-0.128-0.4-0.064-0.416-0.064-0.8-0.128-0.768-0.16-1.104-0.24-0.352-0.080-0.336-0.096-0.336-0.080-0.32-0.096-0.304-0.096-2.416-0.64-0.304-0.096-0.544-0.192-0.24-0.080-0.24-0.096-0.224-0.080-0.208-0.080-0.352-0.16-0.16-0.064-0.144-0.080-0.128-0.064-0.112-0.064-0.192-0.128-0.112-0.112-0.048-0.064-0.016-0.048v-0.096l0.016-0.048 0.048-0.032 0.048-0.048 0.064-0.032 0.192-0.064 0.112-0.032 0.128-0.032 0.144-0.016 0.16-0.032 0.352-0.032 0.208-0.016 0.224-0.016 0.24-0.016h0.24l0.272-0.016h234.48l-1.616-1.28h-323.44l-10.48 8.352-16.144-12.864 16.144-12.864 11.28 9.008h321.84l1.616-1.28-119.296-0.176-0.128-0.064-0.048-0.032-0.032-0.048-0.032-0.032-0.032-0.048-0.016-0.048v-0.096l0.016-0.048 0.032-0.048 0.064-0.128 0.112-0.112 0.064-0.080 0.080-0.064 0.096-0.064 0.080-0.080 0.224-0.16 0.256-0.16 0.144-0.080 0.144-0.096 0.16-0.080 0.352-0.192 1.6-0.64 0.192-0.096 0.176-0.096 0.192-0.096 0.192-0.080 0.192-0.096 0.208-0.080 0.384-0.16 0.208-0.064 0.416-0.16 0.192-0.064 0.416-0.128 0.224-0.064 0.208-0.048 0.208-0.064 0.208-0.048 0.208-0.064 0.208-0.048 0.224-0.048 0.208-0.032 0.416-0.096 0.208-0.032 0.224-0.032 0.416-0.064 0.192-0.032 0.208-0.016 0.208-0.032 0.208-0.016 0.384-0.032 0.208-0.016 0.192-0.016h0.192l0.192-0.016h114.096l20.16-16.080 20.16 15.44h112.928zM436.912 318.848l25.008-19.936-25.008-19.936-25.008 19.936 25.008 19.936zM797.456 309.2l1.312-1.28 1.728-1.536 1.984-1.648 2.064-1.648 1.984-1.504 1.728-1.232 1.312-0.8-12.112-9.648-12.096 9.648 12.096 9.648zM65.568 299.952l1.728 1.392 1.984 1.616 2.064 1.728 1.984 1.68 1.728 1.552 1.312 1.28 1.552-1.28 1.824-1.552 1.968-1.68 1.984-1.728 1.872-1.616 1.632-1.392 1.264-1.040-12.096-9.648-12.112 9.648 1.312 1.040z"></path>
</svg>
